<?xml version="1.0" encoding="utf-8"?>
<!-- Generator: Adobe Illustrator 24.1.1, SVG Export Plug-In . SVG Version: 6.00 Build 0)  -->
<svg version="1.1" id="레이어_1" xmlns="http://www.w3.org/2000/svg" xmlns:xlink="http://www.w3.org/1999/xlink" x="0px"
	 y="0px" viewBox="0 0 32 32" style="enable-background:new 0 0 32 32;" xml:space="preserve">
<style type="text/css">
	.st0{fill:none;stroke:#866761;stroke-width:2;stroke-linecap:round;stroke-linejoin:round;}
</style>
<g id="Plastic_Bag">
	<path class="st0" d="M27,5v22c0,1.1-0.9,2-2,2H7c-1.1,0-2-0.9-2-2V5c0-1.1,0.9-2,2-2h3c1.1,0,2,0.9,2,2v4c0,1.1,0.9,2,2,2h4
		c1.1,0,2-0.9,2-2V5c0-1.1,0.9-2,2-2h3C26.1,3,27,3.9,27,5z"/>
</g>
</svg>
