<?xml version="1.0" encoding="utf-8"?>
<!-- Generator: Adobe Illustrator 24.1.1, SVG Export Plug-In . SVG Version: 6.00 Build 0)  -->
<svg version="1.1" xmlns="http://www.w3.org/2000/svg" xmlns:xlink="http://www.w3.org/1999/xlink" x="0px" y="0px"
	 viewBox="0 0 24 24" style="enable-background:new 0 0 24 24;" xml:space="preserve">
<style type="text/css">
	.st0{fill:#866761;}
	.st1{fill:none;stroke:#866761;stroke-width:2;stroke-linecap:round;stroke-miterlimit:10;}
</style>
<g id="레이어_1">
	<path class="st0" d="M21,10H3c-0.6,0-1,0.4-1,1c0,3.6,1.9,6.9,5,8.7V21c0,0.6,0.4,1,1,1h8c0.6,0,1-0.4,1-1v-1.3
		c3.1-1.8,5-5.1,5-8.7C22,10.4,21.6,10,21,10z"/>
</g>
<g id="레이어_2">
	<g>
		<path class="st1" d="M6.2,2.1c0,0-3,1.5,0.1,3.1S5.6,8.6,5.6,8.6"/>
		<path class="st1" d="M12.1,2.1c0,0-3,1.5,0.1,3.1s-0.7,3.5-0.7,3.5"/>
		<path class="st1" d="M17.8,2.1c0,0-3,1.5,0.1,3.1s-0.7,3.5-0.7,3.5"/>
	</g>
</g>
</svg>
