<?xml version="1.0" encoding="utf-8"?>
<!-- Generator: Adobe Illustrator 24.1.1, SVG Export Plug-In . SVG Version: 6.00 Build 0)  -->
<svg version="1.1" id="레이어_1" xmlns="http://www.w3.org/2000/svg" xmlns:xlink="http://www.w3.org/1999/xlink" x="0px"
	 y="0px" viewBox="0 0 16 16" style="enable-background:new 0 0 16 16;" xml:space="preserve">
<style type="text/css">
	.st0{fill:#866761;}
</style>
<path class="st0" d="M14.5,8c0,3.6-2.9,6.5-6.5,6.5S1.5,11.6,1.5,8S4.4,1.5,8,1.5S14.5,4.4,14.5,8z M0,8c0,4.4,3.6,8,8,8s8-3.6,8-8
	s-3.6-8-8-8S0,3.6,0,8z M7.3,3.8V8c0,0.3,0.1,0.5,0.3,0.6l3,2c0.3,0.2,0.8,0.1,1-0.2s0.1-0.8-0.2-1L8.8,7.6V3.8C8.8,3.3,8.4,3,8,3
	S7.3,3.3,7.3,3.8z"/>
</svg>
