<?xml version="1.0" encoding="utf-8"?>
<!-- Generator: Adobe Illustrator 24.1.1, SVG Export Plug-In . SVG Version: 6.00 Build 0)  -->
<svg version="1.1" id="레이어_1" xmlns="http://www.w3.org/2000/svg" xmlns:xlink="http://www.w3.org/1999/xlink" x="0px"
	 y="0px" viewBox="0 0 64 64" style="enable-background:new 0 0 64 64;" xml:space="preserve">
<style type="text/css">
	.st0{fill:#866761;}
	.st1{fill-rule:evenodd;clip-rule:evenodd;fill:#866761;}
</style>
<desc></desc>
<g id="Search">
	<g id="Group" transform="translate(5.000000, 5.000000)">
		<path id="Mask" class="st0" d="M23,0C10.3,0,0,10.3,0,23s10.3,23,23,23s23-10.3,23-23S35.7,0,23,0z M23,5c9.9,0,18,8.1,18,18
			s-8.1,18-18,18S5,32.9,5,23S13.1,5,23,5z"/>
		<path id="Rectangle" class="st1" d="M35.9,36.4c1-1,2.6-1,3.5,0L50.1,47c1,1,1,2.6,0,3.5s-2.6,1-3.5,0L35.9,40
			C35,39,35,37.4,35.9,36.4z"/>
	</g>
</g>
</svg>
