<?xml version="1.0" encoding="utf-8"?>
<!-- Generator: Adobe Illustrator 24.1.1, SVG Export Plug-In . SVG Version: 6.00 Build 0)  -->
<svg version="1.1" id="레이어_1" xmlns="http://www.w3.org/2000/svg" xmlns:xlink="http://www.w3.org/1999/xlink" x="0px"
	 y="0px" viewBox="0 0 32 32" style="enable-background:new 0 0 32 32;" xml:space="preserve">
<style type="text/css">
	.st0{fill:#866761;stroke:#866761;stroke-miterlimit:10;}
</style>
<g>
	<path class="st0" d="M16,1C9.3,1.1,3.9,6.6,4,13.4c0,5,6.1,12.6,9.8,16.6c0.6,0.6,1.4,1,2.2,1s1.6-0.4,2.2-1
		c3.7-4,9.8-11.6,9.8-16.6C28.1,6.6,22.7,1.1,16,1z M16.7,28.7c-0.4,0.4-1,0.4-1.4,0C9.5,22.3,6,16.5,6,13.4C5.9,7.7,10.4,3.1,16,3
		c5.6,0.1,10.1,4.7,10,10.4C26,16.5,22.5,22.2,16.7,28.7z"/>
	<path class="st0" d="M16,7c-3.3,0-6,2.7-6,6s2.7,6,6,6s6-2.7,6-6S19.3,7,16,7z M16,17c-2.2,0-4-1.8-4-4s1.8-4,4-4s4,1.8,4,4
		S18.2,17,16,17z"/>
</g>
</svg>
