<svg id="레이어_1" data-name="레이어 1" xmlns="http://www.w3.org/2000/svg" viewBox="0 0 310.02 251.31"><defs><style>.cls-1{fill:#866761;}.cls-2{fill:#de754c;}</style></defs><path d="M261.5,134.08" transform="translate(-6.06 -30.28)"/><path class="cls-1" d="M154.5,281.58A117.63,117.63,0,0,1,37,164.08a8.5,8.5,0,0,1,17,0,100.5,100.5,0,0,0,201,0,8.5,8.5,0,0,1,17,0A117.63,117.63,0,0,1,154.5,281.58Z" transform="translate(-6.06 -30.28)"/><path d="M45.5,142.08" transform="translate(-6.06 -30.28)"/><path class="cls-2" d="M191.75,166.47c12.72,14.4,40.09,11,56.54-3.58,12.88-11.4,15.23-26.26,9.51-39.07l55.74-44.14a6.71,6.71,0,0,0,.84-9.72L302.52,56.55a6.72,6.72,0,0,0-9.74-.32l-50.63,49.89c-12-7.24-27.05-6.72-39.94,4.67C185.75,125.33,179,152.09,191.75,166.47Z" transform="translate(-6.06 -30.28)"/><path class="cls-1" d="M44.85,145.89,6.06,120.64l7.45-11.44a37.31,37.31,0,0,1,6.63-7.92,16,16,0,0,1,7.11-3.69,16.66,16.66,0,0,1,8.19.59A39.21,39.21,0,0,1,45.23,103a39.75,39.75,0,0,1,8.42,7,16.83,16.83,0,0,1,3.82,7.24,15.32,15.32,0,0,1-.56,7.95,39.64,39.64,0,0,1-4.61,9.24Zm-1.7-10.78,3.39-5.2a28.16,28.16,0,0,0,3.22-6.22,7.36,7.36,0,0,0,.12-4.67,10.42,10.42,0,0,0-3.08-4.09,58.34,58.34,0,0,0-6.31-4.63,55.48,55.48,0,0,0-6.73-3.85,10.92,10.92,0,0,0-5-1.2,7.3,7.3,0,0,0-4.31,1.94A26.7,26.7,0,0,0,20,112.63l-3.38,5.2Z" transform="translate(-6.06 -30.28)"/><path class="cls-1" d="M82.25,87.15l3,10.9-7.52,4.35L66.7,62.49a11.61,11.61,0,0,1,.38-5.91,9.24,9.24,0,0,1,10.47-6,11.47,11.47,0,0,1,5.39,2.53l29.25,29.37-7.52,4.35-7.89-8.08Zm-4-27.56a3.83,3.83,0,0,0-1.36-.82,1.67,1.67,0,0,0-1.36.2,1.5,1.5,0,0,0-.73.93,2.68,2.68,0,0,0,.09,1.46L80,79.76,91.49,73.1Z" transform="translate(-6.06 -30.28)"/><path class="cls-1" d="M121.9,33.38l8-1.39,7.9,45.61-8,1.38Z" transform="translate(-6.06 -30.28)"/><path class="cls-1" d="M189.74,80.78l-13.26-2.17q-7.35-1.22-11.15-5.75t-2.41-13l4.84-29.53,8,1.31-4.7,28.67a17,17,0,0,0-.21,5.11,7,7,0,0,0,1.27,3.28,5.86,5.86,0,0,0,2.43,1.87,14.49,14.49,0,0,0,3.26.91l13.11,2.15Z" transform="translate(-6.06 -30.28)"/><path class="cls-1" d="M225.17,79.48l-8.42,14.78-7-4L218.2,75.5l-.28-33.85,8,4.55.32,23.46L245.7,57.48,253.62,62Z" transform="translate(-6.06 -30.28)"/></svg>