<?xml version="1.0" encoding="utf-8"?>
<!-- Generator: Adobe Illustrator 24.1.1, SVG Export Plug-In . SVG Version: 6.00 Build 0)  -->
<svg version="1.1" id="레이어_1" xmlns="http://www.w3.org/2000/svg" xmlns:xlink="http://www.w3.org/1999/xlink" x="0px"
	 y="0px" viewBox="0 0 32 32" style="enable-background:new 0 0 32 32;" xml:space="preserve">
<style type="text/css">
	.st0{fill:#866761;}
</style>
<path class="st0" d="M22.5,6c-0.7,0-1.2,0.4-1.4,1H17v2h4.3l0.3,1H18c-2.6,0-3.9,1.4-4.4,2h-3.4c-0.4-0.2-1.8-1-3.7-1
	c-2.2,0-3.9,0.8-3.9,0.8l0.9,1.8c0,0,1.4-0.7,3.1-0.7c0.8,0,1.6,0.2,2.1,0.5l-0.9,1.8C7.2,15.1,6.6,15,6,15c-3.3,0-6,2.7-6,6
	s2.7,6,6,6c3,0,5.4-2.2,5.9-5h3.5c0.8,0,1.5-0.4,1.8-1.1h0l1.1-2.2c1.7-0.8,3-2.1,4-3.3c0.3-0.3,0.5-0.7,0.7-1l2.1,6.9l1.9-0.6
	L25.8,17c0.1,0,0.1,0,0.2,0c2.2,0,4,1.8,4,4s-1.8,4-4,4s-4-1.8-4-4c0-1.1,0.4-2,1.1-2.8l-0.6-2.1C21,17.3,20,19,20,21
	c0,3.3,2.7,6,6,6s6-2.7,6-6s-2.7-6-6-6c-0.3,0-0.5,0-0.8,0.1L23.4,9H25V6H22.5z M18,12h4c-0.1,0.3-0.6,1.1-1.4,2.1
	c-0.9,1.2-2.2,2.5-3.5,3l-0.4,0.1l-0.2,0.4L15.4,20H6v2h3.8c-0.4,1.7-2,3-3.8,3c-2.2,0-4-1.8-4-4s1.8-4,4-4c1.5,0,2.7,0.8,3.4,2h2.2
	c-0.4-1.1-1.2-2.1-2.1-2.8l1.1-2.2h3.9l0.3-0.4C14.8,13.6,15.8,12,18,12z"/>
</svg>
