<?xml version="1.0" encoding="utf-8"?>
<!-- Generator: Adobe Illustrator 24.1.1, SVG Export Plug-In . SVG Version: 6.00 Build 0)  -->
<svg version="1.1" id="레이어_1" xmlns="http://www.w3.org/2000/svg" xmlns:xlink="http://www.w3.org/1999/xlink" x="0px"
	 y="0px" viewBox="0 0 18 16" style="enable-background:new 0 0 18 16;" xml:space="preserve">
<style type="text/css">
	.st0{fill:#866761;}
</style>
<g>
	<path class="st0" d="M9,2.4l1.4,3.1C10.6,6,11,6.3,11.5,6.3l3.2,0.5l-2.3,2.3c-0.3,0.3-0.5,0.8-0.4,1.3l0.6,3.4l-3-1.6
		C9.4,12.1,9.1,12,8.9,12s-0.5,0.1-0.7,0.2l-2.9,1.5L6,10.4c0.1-0.5-0.1-1-0.4-1.3L3.1,6.8l3.3-0.5c0.5-0.1,0.9-0.4,1.1-0.8L9,2.4
		 M9,0C8.7,0,8.5,0.2,8.3,0.4L6.2,4.8L1.4,5.5C1.1,5.5,0.9,5.7,0.8,6s0,0.6,0.2,0.8l3.5,3.4l-0.8,4.9c0,0.3,0.1,0.6,0.3,0.7
		C4.1,15.9,4.3,16,4.4,16s0.2,0,0.3-0.1L9,13.6l4.3,2.3c0.1,0,0.2,0.1,0.4,0.1s0.3,0,0.4-0.2c0.2-0.2,0.4-0.5,0.3-0.7l-0.8-4.9
		L17,6.8c0.2-0.2,0.3-0.5,0.2-0.7c-0.1-0.3-0.3-0.5-0.6-0.5l-4.8-0.7L9.7,0.4C9.5,0.2,9.3,0,9,0L9,0z"/>
</g>
</svg>
